<svg width="155" height="38" viewBox="0 0 155 38" fill="none" xmlns="http://www.w3.org/2000/svg">
<g clip-path="url(#clip0_790_2)">
<g clip-path="url(#clip1_790_2)">
<path d="M113.849 29.949L99.4582 4.58522C98.7677 3.36781 97.4772 2.61719 96.0805 2.61719H90.7154C89.5672 2.61719 88.6338 3.54758 88.6338 4.69876V30.2202H93.1978V2.83165L107.621 28.2521C108.311 29.4695 109.601 30.2202 110.998 30.2202H116.332C117.48 30.2202 118.413 29.2898 118.413 28.1386V2.61719H113.849V29.949Z" fill="#E1FF01"/>
<path d="M85.3702 2.61839H80.8067V33.0347H68.4844V37.5984H78.7913C79.4063 37.5984 79.9926 37.3555 80.4278 36.9203L84.6953 32.653C85.1305 32.2178 85.3733 31.6312 85.3733 31.0161V2.61523L85.3702 2.61839Z" fill="#E1FF01"/>
<path d="M75.0633 2.6211C74.4483 2.6211 73.8614 2.86395 73.4262 3.29919L69.484 7.24158C66.7493 3.92365 62.6085 1.81055 57.9721 1.81055C49.7374 1.81055 43.0605 8.48736 43.0605 16.7222C43.0605 24.9571 49.7374 31.6339 57.9721 31.6339C62.0722 31.6339 65.7846 29.9781 68.4812 27.3004V30.2241H73.0447V7.18482H77.6749V2.6211H75.0601H75.0633ZM57.9721 27.2279C52.1692 27.2279 47.4665 22.5254 47.4665 16.7222C47.4665 10.919 52.1692 6.21657 57.9721 6.21657C63.7755 6.21657 68.4781 10.919 68.4781 16.7222C68.4781 22.5254 63.7755 27.2279 57.9721 27.2279Z" fill="#E1FF01"/>
<path d="M152.347 2.6172C151.732 2.6172 151.145 2.86005 150.71 3.29529L146.767 7.23764C144.033 3.91975 139.892 1.80664 135.256 1.80664C127.021 1.80664 120.344 8.48343 120.344 16.7183C120.344 24.9531 127.021 31.63 135.256 31.63C139.355 31.63 143.068 29.9742 145.764 27.2965V30.2202H150.328V7.18089H154.958V2.6172H152.343H152.347ZM135.256 27.224C129.452 27.224 124.75 22.5215 124.75 16.7183C124.75 10.9151 129.452 6.21263 135.256 6.21263C141.059 6.21263 145.761 10.9151 145.761 16.7183C145.761 22.5215 141.059 27.224 135.256 27.224Z" fill="#E1FF01"/>
<path d="M23.1844 21.4592L34.5636 24.2883L35.6518 19.9043L24.2062 17.0595C23.7931 16.9585 23.6922 16.4161 24.0423 16.1732L33.7279 9.37026L31.129 5.67704L20.8694 12.8805C20.5414 13.1108 20.0904 12.8774 20.0904 12.4737V0H15.574V12.4769C15.574 12.8774 15.123 13.114 14.795 12.8837L4.52902 5.67704L1.93019 9.37026L11.6001 16.1638C11.947 16.4067 11.8461 16.946 11.4361 17.0501L0 19.9011L1.09441 24.2851L12.4863 21.4497C12.8995 21.3456 13.2433 21.7809 13.0445 22.1593L6.11541 35.5193L10.124 37.5914L17.397 23.5849C17.583 23.2285 18.0908 23.2285 18.2769 23.5849L25.5435 37.5914L29.5584 35.5225L22.6261 22.1625C22.4306 21.784 22.7712 21.3488 23.1844 21.4529V21.4592Z" fill="#E1FF01"/>
</g>
</g>
<defs>
<clipPath id="clip0_790_2">
<rect width="155" height="38" fill="white"/>
</clipPath>
<clipPath id="clip1_790_2">
<rect width="155" height="37.6295" fill="white"/>
</clipPath>
</defs>
</svg>
